<svg xmlns="http://www.w3.org/2000/svg" viewBox="0 0 32 32" id="teddy"><path d="M26.25 22.31A3.64 3.64 0 0 0 27 19.1c-.54-2.4-2.89-4.67-5.74-5.71A6.8 6.8 0 0 0 22 10a5.54 5.54 0 0 0-.12-1.15 3 3 0 1 0-3.48-4.32 6.15 6.15 0 0 0-4.8 0 3 3 0 1 0-3.48 4.32A5.54 5.54 0 0 0 10 10a6.8 6.8 0 0 0 .78 3.39c-2.85 1-5.2 3.31-5.74 5.71a3.64 3.64 0 0 0 .71 3.21 2.48 2.48 0 0 0-.13.35 2.94 2.94 0 0 0 .3 2.27l1.6 2.77a3 3 0 0 0 4.1 1.1l.63-.37a2.85 2.85 0 0 0 1-.93A7.8 7.8 0 0 0 16 28a7.9 7.9 0 0 0 2.77-.5 3.19 3.19 0 0 0 1 .94l.62.35a3 3 0 0 0 1.51.41 3 3 0 0 0 2.6-1.5l1.59-2.77a2.91 2.91 0 0 0 .3-2.27 2.48 2.48 0 0 0-.14-.35ZM25 19.54a1.73 1.73 0 0 1-.13 1.23l-.52-.3a2.66 2.66 0 0 0-.39-.16V20a7.84 7.84 0 0 0-.57-2.93A5.34 5.34 0 0 1 25 19.54ZM21 5a1 1 0 0 1 .23 2h-.05v-.05a6.2 6.2 0 0 0-.47-.67 6.1 6.1 0 0 0-.55-.59A1 1 0 0 1 21 5Zm-2.61 1.8a4.06 4.06 0 0 1 1.26 1.56A4.1 4.1 0 0 1 20 10a4 4 0 0 1-1.15 3.18 3.58 3.58 0 0 1-1.85.74v-1.2a2 2 0 1 0-2 0v1.2a3.58 3.58 0 0 1-1.85-.74A4 4 0 0 1 12 10a4.06 4.06 0 0 1 .35-1.64 3.75 3.75 0 0 1 .24-.44 4 4 0 0 1 1-1.12 4 4 0 0 1 4.78 0ZM11 5a1 1 0 0 1 .92.61 6 6 0 0 0-.54.58 4.57 4.57 0 0 0-.47.68A1 1 0 0 1 10 6a1 1 0 0 1 1-1Zm.25 21.7-.63.37a1 1 0 0 1-.76.1 1 1 0 0 1-.61-.47l-1.6-2.78a1 1 0 0 1-.1-.74 1 1 0 0 1 .45-.62l.63-.37a.9.9 0 0 1 .44-.13H9.36l.12.05.12.05a.86.86 0 0 1 .18.14.83.83 0 0 1 .16.21l1.6 2.75a1 1 0 0 1 .12.66.93.93 0 0 1-.41.78Zm2.49-1.14a.3.3 0 0 1 0-.1c0-.13-.05-.26-.08-.39s0-.12-.05-.18a3 3 0 0 0-.24-.56l-1.6-2.76a3.33 3.33 0 0 0-.46-.59l-.09-.08a3.11 3.11 0 0 0-1.2-.71V20a1 1 0 0 0-2 0v.3c0 .1-.27.1-.39.17l-.52.3A1.73 1.73 0 0 1 7 19.54 5.35 5.35 0 0 1 8.68 17a1 1 0 0 0 .56.93 1 1 0 0 0 1.34-.47 5.9 5.9 0 0 1 1.89-2.28l.13.06.28.14a4.6 4.6 0 0 0 .61.25l.34.11a5.25 5.25 0 0 0 .71.16l.33.06a9.16 9.16 0 0 0 2.26 0l.33-.06a5.25 5.25 0 0 0 .71-.16l.34-.11a4 4 0 0 0 .6-.25l.29-.14.13-.06A6 6 0 0 1 22 20v.19a2.92 2.92 0 0 0-1.18.69l-.12.12a3.21 3.21 0 0 0-.45.58l-1.6 2.76a3.82 3.82 0 0 0-.24.55 1 1 0 0 1 0 .17 3.1 3.1 0 0 0-.08.42.29.29 0 0 0 0 .09 6.11 6.11 0 0 1-4.59-.01Zm10.61-1.63-1.6 2.77a1 1 0 0 1-.61.47 1 1 0 0 1-.76-.11l-.61-.35a1 1 0 0 1-.5-.71 1 1 0 0 1 .12-.67L22 22.57a1 1 0 0 1 .56-.45H22.9a1.17 1.17 0 0 1 .45.13l.64.38a1 1 0 0 1 .47.61.94.94 0 0 1-.11.69Z" fill="#f20c8b" class="color000000 svgShape"></path></svg>