<svg xmlns="http://www.w3.org/2000/svg" xmlns:xlink="http://www.w3.org/1999/xlink" viewBox="0 0 20 20" id="Suitcase"><defs><linearGradient id="a"><stop offset="0" stop-color="#920051" class="stopColor000092 svgShape"></stop><stop offset="1" stop-color="#f20c8b" class="stopColorff00f3 svgShape"></stop></linearGradient><linearGradient id="b" x1="3.5" x2="14" y1="10.051" y2="10.051" gradientUnits="userSpaceOnUse" xlink:href="#a"></linearGradient></defs><path style="line-height:normal;text-indent:0;text-align:start;text-decoration-line:none;text-decoration-style:solid;text-decoration-color:#000;text-transform:none;block-progression:tb;isolation:auto;mix-blend-mode:normal" fill="url(#b)" d="M8.5 4.3C7.7 4.3 7 5 7 5.8v1H5c-.411 0-.802.145-1.078.42A1.52 1.52 0 0 0 3.5 8.3v6c0 .412.146.803.422 1.079.276.276.667.422 1.078.422h10c.411 0 .802-.146 1.078-.422s.422-.667.422-1.078v-6a1.52 1.52 0 0 0-.422-1.08A1.514 1.514 0 0 0 15 6.8h-2v-1c0-.8-.7-1.5-1.5-1.5h-3zm0 1h3c.3 0 .5.2.5.5v1H8v-1c0-.3.2-.5.5-.5zM5 7.8h2v.5c0 .3.2.5.5.5s.5-.2.5-.5v-.5h4v.5c0 .3.2.5.5.5s.5-.2.5-.5v-.5h2c.189 0 .297.054.371.128.074.074.129.184.129.373v6c0 .189-.055.297-.129.37-.074.075-.182.13-.371.13H5c-.189 0-.297-.055-.371-.13-.074-.073-.129-.181-.129-.37v-6c0-.19.055-.3.129-.373.074-.074.182-.127.371-.127z" color="#000" font-family="sans-serif" font-weight="400" overflow="visible"></path></svg>