<svg width="65" height="59" viewBox="0 0 65 59" fill="none" xmlns="http://www.w3.org/2000/svg">
<path d="M62.9728 8.32588C60.2505 2.70484 52.4087 -1.89419 43.2871 0.783466C38.9283 2.05022 35.1254 4.76681 32.4995 8.4894C29.8737 4.76681 26.0708 2.05022 21.712 0.783466C12.5701 -1.85331 4.74859 2.70484 2.02632 8.32588C-1.79299 16.1953 -0.208384 25.0459 6.73951 34.6323C12.1841 42.1339 19.9649 49.7376 31.2603 58.5678C31.6173 58.8479 32.057 59 32.5097 59C32.9624 59 33.4021 58.8479 33.7591 58.5678C45.0342 49.758 52.8354 42.2156 58.2799 34.6323C65.2075 25.0459 66.7921 16.1953 62.9728 8.32588Z" fill="#F4F4F4"/>
</svg>
