<svg width="50" height="59" viewBox="0 0 50 59" fill="none" xmlns="http://www.w3.org/2000/svg">
<path d="M43.75 18.3103H6.25C4.5929 18.312 3.00415 18.9555 1.83241 20.0998C0.660666 21.2441 0.00165461 22.7956 0 24.4138V36.6207C0.00110308 37.6995 0.440445 38.7339 1.22161 39.4967C2.00277 40.2595 3.06194 40.6886 4.16667 40.6897V54.931C4.16777 56.0099 4.60711 57.0442 5.38827 57.807C6.16944 58.5699 7.2286 58.9989 8.33333 59H16.6667C17.7714 58.9989 18.8306 58.5699 19.6117 57.807C20.3929 57.0442 20.8322 56.0099 20.8333 54.931V30.5172H16.6667V54.931H8.33333V36.6207H4.16667V24.4138C4.16667 23.8742 4.38616 23.3567 4.77686 22.9752C5.16756 22.5937 5.69747 22.3793 6.25 22.3793H43.75C44.3025 22.3793 44.8324 22.5937 45.2231 22.9752C45.6138 23.3567 45.8333 23.8742 45.8333 24.4138V36.6207H41.6667V54.931H33.3333V30.5172H29.1667V54.931C29.1678 56.0099 29.6071 57.0442 30.3883 57.807C31.1694 58.5699 32.2286 58.9989 33.3333 59H41.6667C42.7714 58.9989 43.8306 58.5699 44.6117 57.807C45.3929 57.0442 45.8322 56.0099 45.8333 54.931V40.6897C46.9381 40.6886 47.9972 40.2595 48.7784 39.4967C49.5596 38.7339 49.9989 37.6995 50 36.6207V24.4138C49.9983 22.7956 49.3393 21.2441 48.1676 20.0998C46.9958 18.9555 45.4071 18.312 43.75 18.3103ZM12.5 16.2759C10.8518 16.2759 9.24066 15.7986 7.87025 14.9044C6.49984 14.0102 5.43173 12.7392 4.801 11.2522C4.17027 9.76517 4.00525 8.12891 4.32679 6.5503C4.64833 4.9717 5.44201 3.52166 6.60744 2.38355C7.77288 1.24544 9.25774 0.470376 10.8742 0.156372C12.4908 -0.157632 14.1663 0.00352602 15.689 0.619467C17.2117 1.23541 18.5132 2.27847 19.4289 3.61674C20.3446 4.95502 20.8333 6.5284 20.8333 8.13793C20.8311 10.2956 19.9524 12.3643 18.3901 13.8899C16.8278 15.4156 14.7095 16.2737 12.5 16.2759ZM12.5 4.06897C11.6759 4.06897 10.8703 4.30761 10.1851 4.75471C9.49992 5.20182 8.96587 5.8373 8.6505 6.58081C8.33514 7.32432 8.25262 8.14245 8.41339 8.93175C8.57417 9.72105 8.971 10.4461 9.55372 11.0151C10.1364 11.5842 10.8789 11.9717 11.6871 12.1287C12.4954 12.2857 13.3332 12.2051 14.0945 11.8972C14.8559 11.5892 15.5066 11.0677 15.9645 10.3985C16.4223 9.72939 16.6667 8.9427 16.6667 8.13793C16.6656 7.05911 16.2262 6.02478 15.4451 5.26193C14.6639 4.49909 13.6047 4.07005 12.5 4.06897ZM37.5 16.2759C35.8518 16.2759 34.2407 15.7986 32.8703 14.9044C31.4998 14.0102 30.4317 12.7392 29.801 11.2522C29.1703 9.76517 29.0052 8.12891 29.3268 6.5503C29.6483 4.9717 30.442 3.52166 31.6074 2.38355C32.7729 1.24544 34.2577 0.470376 35.8742 0.156372C37.4908 -0.157632 39.1663 0.00352602 40.689 0.619467C42.2117 1.23541 43.5132 2.27847 44.4289 3.61674C45.3446 4.95502 45.8333 6.5284 45.8333 8.13793C45.8311 10.2956 44.9524 12.3643 43.3901 13.8899C41.8278 15.4156 39.7095 16.2737 37.5 16.2759ZM37.5 4.06897C36.6759 4.06897 35.8703 4.30761 35.1851 4.75471C34.4999 5.20182 33.9659 5.8373 33.6505 6.58081C33.3351 7.32432 33.2526 8.14245 33.4134 8.93175C33.5742 9.72105 33.971 10.4461 34.5537 11.0151C35.1364 11.5842 35.8789 11.9717 36.6871 12.1287C37.4954 12.2857 38.3332 12.2051 39.0945 11.8972C39.8559 11.5892 40.5066 11.0677 40.9645 10.3985C41.4223 9.72939 41.6667 8.9427 41.6667 8.13793C41.6656 7.05911 41.2262 6.02478 40.4451 5.26193C39.6639 4.49909 38.6047 4.07005 37.5 4.06897Z" fill="#F4F4F4"/>
</svg>
