<svg width="24" height="24" viewBox="0 0 24 24" fill="none" xmlns="http://www.w3.org/2000/svg">
<g clip-path="url(#clip0_1152_2432)">
<rect width="24" height="24" transform="translate(-1)" fill="white"/>
<path fill-rule="evenodd" clip-rule="evenodd" d="M22.54 12.7615C22.54 11.946 22.4668 11.1619 22.3309 10.4092H11.5V14.8576H17.6891C17.4225 16.2951 16.6123 17.513 15.3943 18.3285V21.214H19.1109C21.2855 19.2119 22.54 16.2637 22.54 12.7615Z" fill="#4285F4"/>
<path fill-rule="evenodd" clip-rule="evenodd" d="M11.5 24.0001C14.605 24.0001 17.2081 22.9703 19.1109 21.2139L15.3943 18.3285C14.3645 19.0185 13.0472 19.4262 11.5 19.4262C8.50474 19.4262 5.96951 17.4032 5.06519 14.6851H1.22314V17.6646C3.11542 21.423 7.00451 24.0001 11.5 24.0001Z" fill="#34A853"/>
<path fill-rule="evenodd" clip-rule="evenodd" d="M5.06523 14.685C4.83523 13.995 4.70455 13.2579 4.70455 12.5C4.70455 11.742 4.83523 11.005 5.06523 10.315V7.33545H1.22318C0.444318 8.88795 0 10.6443 0 12.5C0 14.3557 0.444318 16.112 1.22318 17.6645L5.06523 14.685Z" fill="#FBBC05"/>
<path fill-rule="evenodd" clip-rule="evenodd" d="M11.5 5.57386C13.1884 5.57386 14.7043 6.15409 15.8961 7.29364L19.1945 3.99523C17.2029 2.13955 14.5997 1 11.5 1C7.00451 1 3.11542 3.57705 1.22314 7.33545L5.06519 10.315C5.96951 7.59682 8.50474 5.57386 11.5 5.57386Z" fill="#EA4335"/>
</g>
<defs>
<clipPath id="clip0_1152_2432">
<rect width="24" height="24" fill="white"/>
</clipPath>
</defs>
</svg>
