<svg xmlns="http://www.w3.org/2000/svg" viewBox="0 0 91 91" id="drink"><path d="M68.449 81.942l-19.795-7.185V58.16c7.587-.196 14.157-2.498 19-6.655 5.537-4.756 8.465-11.682 8.465-20.031 0-7.057-4.228-18.753-7.864-24.105a1.124 1.124 0 0 0-.931-.493h-39.45c-.372 0-.722.185-.931.493-3.701 5.448-8.004 17.165-8.004 24.105 0 8.345 2.949 15.272 8.527 20.034 4.838 4.13 11.377 6.422 18.938 6.644v16.521l-19.237 7.274a1.125 1.125 0 1 0 .397 2.178h40.5a1.125 1.125 0 0 0 .385-2.183zM28.479 9.125h38.239c2.074 3.244 4.294 8.495 5.701 13.562-2.085 1.782-12.325 9.43-28.129 3.11-10.71-4.284-19.497-1.505-22.303-.37 1.305-5.781 4-12.417 6.492-16.302zm-7.29 22.349c0-1.067.116-2.264.313-3.527.191.011.385-.008.567-.1.095-.047 9.592-4.677 21.385.04 4.747 1.897 9.041 2.611 12.816 2.611 8.414-.001 14.24-3.541 16.749-5.426.527 2.326.849 4.538.849 6.401 0 7.673-2.656 14.01-7.682 18.324-4.443 3.815-10.523 5.929-17.584 6.112h-2.02c-7.076-.181-13.182-2.295-17.656-6.113-5.061-4.32-7.737-10.656-7.737-18.322zm12.532 50.401l13.688-5.176 14.26 5.176H33.721z" fill="#f20c8b" class="color000000 svgShape"></path><path d="M44.152 49.977c-3.036-.45-7.411-2.12-9.553-3.646-3.922-2.802-5.91-7.749-5.91-14.704a1.125 1.125 0 00-2.25 0c0 7.724 2.306 13.286 6.854 16.535 2.463 1.756 7.088 3.53 10.529 4.041a1.123 1.123 0 001.277-.948 1.123 1.123 0 00-.947-1.278zM48.561 52.648c.299 0 .59-.12.799-.33a1.126 1.126 0 000-1.59c-.409-.42-1.18-.42-1.59 0-.209.21-.33.5-.33.79a1.13 1.13 0 001.121 1.13z" fill="#f20c8b" class="color000000 svgShape"></path></svg>