<svg xmlns="http://www.w3.org/2000/svg" viewBox="0 0 48 48" id="Dumbbell"><path d="M2.145 26.894h2.786v.745a2.78 2.78 0 0 0 2.777 2.776 2.74 2.74 0 0 0 .777-.124V35a1 1 0 0 0 1 1h3.554a1 1 0 0 0 1-1v-8.223h19.915V35a1 1 0 0 0 1 1h3.554a1 1 0 0 0 1-1v-4.71a2.74 2.74 0 0 0 .777.125 2.78 2.78 0 0 0 2.777-2.776v-.745h2.75a1 1 0 0 0 1-1v-3.787a1 1 0 0 0-1-1h-2.75v-.746a2.78 2.78 0 0 0-2.777-2.777 2.738 2.738 0 0 0-.777.125V13a1 1 0 0 0-1-1h-3.554a1 1 0 0 0-1 1v8.139H14.04V13a1 1 0 0 0-1-1H9.485a1 1 0 0 0-1 1v4.709a2.738 2.738 0 0 0-.777-.125 2.78 2.78 0 0 0-2.777 2.777v.746H2.145a1 1 0 0 0-1 1v3.787a1 1 0 0 0 1 1Zm17.095-2.117V23.14h9.893v1.638Zm25.573-1.67v1.787h-1.75v-1.787Zm-4.528-3.523a.778.778 0 0 1 .778.777v1.567a.952.952 0 0 0-.037.179v3.787a.952.952 0 0 0 .036.179v1.566a.777.777 0 0 1-1.554 0V20.36a.778.778 0 0 1 .777-.777ZM35.955 14h1.553v20h-1.554V14Zm-2 10.777h-2.822V23.14h2.821ZM17.24 23.14v1.638h-3.2V23.14ZM10.485 14h1.554v20h-1.554V14Zm-3.554 6.361a.777.777 0 0 1 1.554 0v7.278a.777.777 0 0 1-1.554 0V20.36Zm-3.786 2.746h1.786v1.787H3.145Z" data-name="Layer 25" fill="#f20c8b" class="color000000 svgShape"></path></svg>