<svg xmlns="http://www.w3.org/2000/svg" data-name="Artboard 30" viewBox="0 0 64 64" id="Marijuana"><path d="M7.021,27.684A26.383,26.383,0,0,0,18.193,35.1c-5,1.24-11.931,3.723-15.024,8.349a1,1,0,0,0,.611,1.532c1.491.335,2.705.636,3.755.9,4.5,1.116,6.106,1.515,13.1.7C18.771,48.642,17,52.356,17,59a1,1,0,0,0,1.152.988A18.753,18.753,0,0,0,29,54.875V61a2,2,0,0,0,2,2h2a2,2,0,0,0,2-2V54.875a18.753,18.753,0,0,0,10.848,5.113A1,1,0,0,0,47,59c0-6.644-1.771-10.358-3.632-12.427,6.987.813,8.595.416,13.1-.7,1.05-.261,2.264-.562,3.755-.9a1,1,0,0,0,.611-1.532c-3.093-4.626-10.025-7.109-15.024-8.349a26.383,26.383,0,0,0,11.172-7.411A38.6,38.6,0,0,0,62.9,19.447a1,1,0,0,0-.616-1.407c-8.3-2.414-15.894-.437-22.605,5.873C41.9,9.722,33.072,1.618,32.667,1.255a1,1,0,0,0-1.334,0c-.4.363-9.229,8.467-7.007,22.658-6.711-6.31-14.3-8.287-22.6-5.873a1,1,0,0,0-.616,1.407A38.6,38.6,0,0,0,7.021,27.684ZM24.664,27.1c.614.666.984,1.067,1.642.855a1,1,0,0,0,.661-1.209c-3.412-12.838,2.87-20.989,5.026-23.32,2.121,2.337,8.42,10.606,5.04,23.32a1,1,0,0,0,.661,1.209c.656.212,1.028-.189,1.642-.855C45.6,20.31,52.714,17.8,60.5,19.639,58.429,23.157,51.14,34,40,34a1,1,0,0,0-.118,1.993c.139.016,13.057,1.617,18.357,7.388-.838.2-1.581.383-2.256.551-5.155,1.278-6.228,1.545-16.847.077a1,1,0,0,0-.288,1.979c.242.04,5.749,1.072,6.131,11.814-5.7-1.169-8.654-4.025-10.144-6.289a1,1,0,0,0-1.835.55V61H31V52.063a1,1,0,0,0-.713-.958A1.012,1.012,0,0,0,30,51.063a1,1,0,0,0-.835.45c-1.49,2.264-4.444,5.12-10.144,6.289C19.4,47.06,24.91,46.028,25.143,45.989a1,1,0,0,0-.279-1.98c-10.622,1.469-11.691,1.2-16.847-.077-.675-.168-1.417-.352-2.256-.551,5.3-5.764,18.219-7.372,18.357-7.388A1,1,0,0,0,24,34C12.879,34,5.577,23.156,3.5,19.639,11.286,17.807,18.4,20.311,24.664,27.1Z" fill="#f20c8b" class="color000000 svgShape"></path></svg>