<svg xmlns="http://www.w3.org/2000/svg" enable-background="new 0 0 512 512" viewBox="0 0 512 512" id="Pray"><linearGradient id="a" x1="85.975" x2="426.064" y1="55.23" y2="395.319" gradientTransform="matrix(1 0 0 -1 0 512)" gradientUnits="userSpaceOnUse"><stop offset=".049" stop-color="#a6005c" class="stopColor00a683 svgShape"></stop><stop offset="1" stop-color="#f20c8b" class="stopColorfff05d svgShape"></stop></linearGradient><path fill="url(#a)" d="M242.924,149.657c1.417-5.211,0.724-10.874-1.875-15.478
		c-2.614-4.788-7.641-7.585-13.19-7.512c2.242-6.94,4.604-13.684,7.231-19.886c3.302-7.815,0.526-16.976-6.598-21.788
		c-2.801-1.893-6.039-2.842-9.344-2.994c4.194-8.463,1.992-18.559-5.442-24.256c-9.823-7.528-24.11-4.149-29.461,6.882
		c-0.977,2.013-1.869,4.006-2.822,6.015c-8.252-9.434-22.922-7.784-29.139,2.943c-17.443,31.859-37.277,58.022-51.345,102.893
		c-7.075,22.462-12.936,44.925-17.619,66.969c-5.907-6.253-11.826-13.669-17.81-22.372c-17.405-25.474-39.252-34.667-58.433-24.63
		c-7.15,3.713-9.538,13.125-4.104,19.943c12.531,17.741,24.829,23.139,52.074,79.879c8.708,18.144,16.937,35.281,31.201,52.542
		c13.515,16.306,18.567,38.213,13.52,58.589c-3.427,13.704-8.458,28.328-14.957,43.468c-1.516,3.528,1.085,7.436,4.9,7.436h116.584
		c2.359,0,4.437-1.552,5.115-3.813c9.675-30.704,10.175-39.151,17.077-49.123C278.247,332.712,216.695,253.512,242.924,149.657z
		 M219.702,399.317c-8.251,11.919-9.293,23.084-17.384,48.316H97.707c5.25-13.03,9.411-25.667,12.411-37.663
		c5.864-23.66,0.01-49.069-15.655-67.966c-13.426-16.251-21.379-32.817-29.799-50.356c-28.256-58.884-39.573-62.394-53.386-81.959
		c-0.874-1.089-0.841-2.973,0.734-3.791c20.097-10.52,37.945,11.317,44.705,21.204c16.727,24.336,32.653,39.223,50.121,46.851
		c2.724,1.187,5.849-0.057,7.02-2.753c1.182-2.7-0.052-5.843-2.749-7.023c-6.29-2.746-12.508-6.81-18.712-12.098
		c4.795-23.75,11.059-48.083,18.722-72.408c13.719-43.757,32.667-68.349,50.459-100.854c2.564-4.415,8.582-5.029,11.978-1.018
		c1.556,1.774,2.034,4.436,1.385,6.77c-18.896,41.979-32.45,82.548-40.313,120.839c-0.594,2.885,1.265,5.705,4.151,6.296
		c2.836,0.587,5.699-1.226,6.296-4.151c9.726-47.349,27.853-95.176,48.767-138.275c2.416-4.959,8.913-6.498,13.379-3.07
		c3.437,2.633,4.391,7.414,2.266,11.364c-21.411,39.815-34.444,83.397-40.554,128.187c-0.396,2.919,1.645,5.607,4.567,6.004
		c2.922,0.404,5.609-1.648,6.004-4.562c5.466-40.099,16.361-77.31,32.417-110.851c2.093-4.014,7.131-4.858,10.604-2.522
		c2.911,1.968,4.068,5.666,2.744,8.791c-14.429,34.066-23.182,82.441-28.784,118.987c-0.448,2.911,1.552,5.632,4.464,6.077
		c2.915,0.448,5.636-1.559,6.077-4.464c3.93-25.638,9.215-55.969,16.866-83.387c1.227-2.969,6.162-3.544,7.835-0.479
		c1.245,2.205,1.583,5.01,0.881,7.593C205.937,252.552,265.895,331.865,219.702,399.317z M504.98,196.452
		c-19.16-10.038-41.033-0.854-58.443,24.61c-5.986,8.708-11.907,16.126-17.815,22.381
		c-21.414-100.799-42.406-121.368-69.026-169.972c-6.143-10.592-20.911-12.256-29.081-2.841c-0.952-2.005-1.842-3.994-2.818-6.004
		c-5.359-11.047-19.652-14.399-29.461-6.882c-7.432,5.697-9.635,15.795-5.442,24.256c-3.304,0.154-6.544,1.101-9.344,2.994
		c-7.125,4.812-9.9,13.973-6.598,21.79c2.627,6.201,4.988,12.944,7.23,19.882c-5.537-0.074-10.571,2.722-13.157,7.454
		c-2.63,4.663-3.323,10.327-1.932,15.447c26.245,103.87-35.344,183.078,14.478,255.82c6.857,9.911,7.339,18.253,17.061,49.103
		c0.677,2.26,2.755,3.813,5.115,3.813h116.584c3.823,0,6.413-3.917,4.9-7.436c-6.499-15.139-11.53-29.763-14.952-43.46
		c-5.052-20.384,0-42.291,13.52-58.602c29.33-35.494,33.544-71.567,67.802-113.454l15.51-19.011
		C514.349,209.752,512.163,200.179,504.98,196.452z M500.809,209.642l-15.551,19.064c-34.964,42.748-39.614,79.332-67.671,113.295
		c-15.671,18.902-21.524,44.311-15.655,67.979c2.994,11.991,7.156,24.625,12.405,37.656H309.725
		c-8.169-25.476-9.174-36.454-17.368-48.295c-46.221-67.491,13.817-146.554-12.947-252.479c-0.677-2.492-0.338-5.296,0.937-7.562
		c1.624-2.967,6.567-2.449,7.803,0.537c7.651,27.418,12.936,57.75,16.866,83.388c0.443,2.909,3.169,4.91,6.078,4.464
		c2.911-0.445,4.911-3.167,4.464-6.077c-5.605-36.567-14.358-84.93-28.784-118.984c-1.322-3.128-0.167-6.824,2.744-8.794
		c3.494-2.355,8.521-1.472,10.604,2.522c16.057,33.541,26.951,70.752,32.417,110.851c0.396,2.917,3.057,4.958,6.004,4.562
		c2.922-0.399,4.963-3.086,4.567-6.004c-6.111-44.794-19.144-88.375-40.554-128.187c-2.125-3.95-1.172-8.731,2.266-11.364
		c4.433-3.406,10.949-1.919,13.379,3.07c21.171,43.626,39.116,91.284,48.767,138.275c0.599,2.928,3.464,4.737,6.297,4.151
		c2.885-0.592,4.744-3.411,4.151-6.296c-7.864-38.29-21.418-78.858-40.312-120.836c-0.65-2.335-0.168-5.005,1.435-6.836
		c3.384-3.995,9.428-3.218,11.863,0.969c25.381,46.353,48.011,68.193,69.244,173.373c-6.204,5.289-12.422,9.352-18.712,12.099
		c-2.698,1.18-3.931,4.322-2.749,7.023c1.182,2.695,4.302,3.94,7.02,2.753c17.468-7.627,33.393-22.513,50.126-46.861
		c6.755-9.876,24.613-31.73,44.715-21.183C501.522,206.673,501.595,208.653,500.809,209.642z"></path></svg>