<svg xmlns="http://www.w3.org/2000/svg" enable-background="new 0 0 32 32" viewBox="0 0 32 32" id="Prayer"><path fill="#ffb2dd" d="M17.414,16.636c-2.121,2.507-2.036,6.96,0.838,8.637c0.261,0.152,0.521,0.305,0.756,0.496
					c0,0,4.736,4.502,5.893,5.034c0.728,0.334,2.204,0.438,3.548,0.096c2.477-0.631,3.047-3.858,0.979-5.359
					c-2.051-1.489-5.025-3.894-5.025-3.894c-0.641-0.483-0.784-1.384-0.833-1.953l-0.042-5.24c-0.06-0.696-0.215-1.38-0.461-2.033
					L21.04,7.028l-2.733-5.327c-0.403-0.61-3.12,0.276-2.116,3.125c0.533,1.504,1.052,3.609,1.706,4.397l1.12,4.132
					c0.212,0.529,0.081,1.313-0.289,1.746L17.414,16.636z" class="colorffe0b2 svgShape"></path><path fill="#f20c8b" d="M17.414,16.636l1.313-1.535c0.37-0.432,0.501-1.217,0.289-1.746l-1.032-3.809
					c-0.059-0.214-0.165-0.408-0.28-0.597C17.138,8.02,16.67,6.18,16.19,4.826c-0.379-1.076-0.227-1.871,0.131-2.412
					c0.438-0.161,0.848-0.132,0.985,0.077l2.684,5.229c0.033,0.065,0.063,0.132,0.088,0.2l1.987,5.289
					c0.246,0.654,0.301,1.338,0.361,2.034l-0.138,4.82c0.049,0.568,0.347,1.536,1.012,2.142c0,0,3.612,3.368,6.362,4.886
					c1.294,0.714,1.297,2.587,0.012,3.317c-1.536,0.872-3.811,0.838-4.774,0.395c-1.156-0.532-5.893-5.034-5.893-5.034
					c-0.234-0.191-0.495-0.344-0.756-0.496C15.378,23.596,15.293,19.143,17.414,16.636z" class="coloreac89b svgShape"></path><path fill="#f20c8b" d="M18.619,10.14l1.055,7.581l-3.096,0.294l-0.532-3.826C15.542,10.568,18.106,10.211,18.619,10.14z" class="coloreac89b svgShape"></path><g fill="#000000" class="color000000 svgShape"><path fill="#ffb2dd" d="M14.512,16.636c2.12,2.507,2.035,6.96-0.839,8.637c-0.261,0.152-0.521,0.305-0.756,0.496
					c0,0-4.736,4.502-5.893,5.034c-0.728,0.334-2.204,0.438-3.548,0.096C1,30.268,0.43,27.041,2.498,25.54
					c2.051-1.489,5.025-3.894,5.025-3.894c0.641-0.483,0.784-1.384,0.833-1.953l0.042-5.24c0.061-0.696,0.215-1.38,0.461-2.033
					l2.025-5.392l2.733-5.327c0.403-0.61,3.12,0.276,2.116,3.125c-0.533,1.504-1.052,3.609-1.706,4.397l-1.12,4.132
					c-0.212,0.529-0.081,1.313,0.289,1.746L14.512,16.636z" class="colorffe0b2 svgShape"></path><path fill="#f20c8b" d="M14.512,16.636l-1.314-1.535c-0.37-0.432-0.501-1.217-0.289-1.746l1.032-3.809
					c0.059-0.214,0.165-0.408,0.28-0.597c0.566-0.929,1.034-2.77,1.514-4.124c0.379-1.076,0.227-1.871-0.131-2.412
					c-0.438-0.161-0.848-0.132-0.985,0.077l-2.684,5.229c-0.033,0.065-0.063,0.132-0.088,0.2L9.859,13.21
					c-0.246,0.654-0.301,1.338-0.36,2.034l0.137,4.82c-0.049,0.568-0.347,1.536-1.012,2.142c0,0-3.612,3.368-6.362,4.886
					c-1.294,0.714-1.297,2.587-0.012,3.317c1.536,0.872,3.811,0.838,4.774,0.395c1.156-0.532,5.893-5.034,5.893-5.034
					c0.234-0.191,0.495-0.344,0.756-0.496C16.547,23.596,16.632,19.143,14.512,16.636z" class="coloreac89b svgShape"></path><path fill="#f20c8b" d="M13.306,10.14l-1.055,7.581l3.096,0.294l0.532-3.826C16.383,10.568,13.818,10.211,13.306,10.14z" class="coloreac89b svgShape"></path></g><g fill="#000000" class="color000000 svgShape"><path fill="none" stroke="#644556" stroke-linecap="round" stroke-linejoin="round" stroke-miterlimit="10" d="M17.414,16.636" class="colorStroke455a64 svgStroke"></path><path fill="#644556" d="M30.184 26.518c-.092 0-.184-.025-.267-.077-2.402-1.513-5.29-3.825-5.88-4.452-.785-.835-.911-1.6-.967-2.251l-.044-5.28c-.055-.615-.2-1.256-.431-1.868l-2.023-5.386-2.663-5.183c-.158-.023-.58.059-.935.388-.537.499-.648 1.298-.313 2.251.211.594.509 1.283.797 1.949.457 1.056.852 1.967.933 2.545.038.273-.152.526-.426.565-.27.036-.526-.152-.564-.425-.063-.444-.468-1.381-.86-2.287-.295-.681-.6-1.386-.822-2.013-.696-1.978.2-3.248 1.181-3.735.746-.371 1.515-.3 1.824.168L21.485 6.8l2.046 5.438c.263.696.429 1.428.493 2.173l.044 5.28c.045.508.13 1.01.697 1.613.472.502 3.249 2.756 5.685 4.291.233.147.304.456.156.689C30.512 26.435 30.35 26.518 30.184 26.518zM24.472 31.036c-.118 0-.237-.042-.332-.126l-4.22-3.749c-.46-.408-.948-.745-1.451-1.003-.21-.107-.431-.237-.616-.379-2.272-1.736-3.056-5.01-1.862-7.785.108-.254.402-.369.656-.262.254.109.371.403.262.657-1.015 2.359-.362 5.132 1.552 6.595.139.106.305.203.464.283.579.297 1.137.683 1.66 1.146l4.22 3.749c.206.184.226.5.042.706C24.747 30.979 24.609 31.036 24.472 31.036z" class="color455a64 svgShape"></path><path fill="#644556" d="M16.577,18.515c-0.245,0-0.459-0.181-0.494-0.431l-0.532-3.826c-0.238-1.708,0.124-2.988,1.075-3.804
					c0.753-0.646,1.635-0.769,1.924-0.809c0.266-0.042,0.526,0.152,0.564,0.426l1.055,7.581c0.038,0.273-0.152,0.526-0.426,0.564
					c-0.272,0.037-0.526-0.152-0.564-0.426l-0.981-7.054c-0.28,0.08-0.621,0.221-0.921,0.478c-0.676,0.58-0.923,1.558-0.735,2.907
					l0.532,3.826c0.038,0.273-0.152,0.526-0.426,0.564C16.624,18.513,16.601,18.515,16.577,18.515z" class="color455a64 svgShape"></path><g fill="#000000" class="color000000 svgShape"><path fill="none" stroke="#644556" stroke-linecap="round" stroke-linejoin="round" stroke-miterlimit="10" d="M14.512,16.636" class="colorStroke455a64 svgStroke"></path><path fill="#644556" d="M1.741 26.518c-.166 0-.328-.083-.423-.233-.147-.234-.077-.542.156-.689 2.436-1.535 5.213-3.789 5.685-4.291.567-.604.652-1.105.699-1.652l.04-5.202c.066-.784.232-1.516.495-2.212l2.023-5.385 2.756-5.379c.339-.517 1.107-.585 1.853-.216.98.487 1.877 1.758 1.181 3.734-.223.628-.527 1.333-.822 2.014-.393.906-.798 1.843-.86 2.287-.038.273-.291.465-.564.425-.273-.039-.464-.292-.426-.565.081-.578.476-1.489.933-2.545.288-.666.586-1.354.797-1.95.336-.952.225-1.751-.313-2.25-.354-.329-.775-.411-.935-.388L11.33 7.256l-2.001 5.333c-.23.612-.376 1.253-.433 1.907l-.04 5.202c-.058.69-.184 1.455-.969 2.29-.59.627-3.478 2.939-5.88 4.452C1.925 26.493 1.833 26.518 1.741 26.518zM7.453 31.036c-.138 0-.275-.057-.374-.168-.184-.207-.164-.522.042-.706l4.221-3.749c.521-.463 1.079-.848 1.657-1.145.161-.082.327-.178.466-.284 1.914-1.463 2.566-4.236 1.552-6.595-.109-.254.008-.548.262-.657.252-.106.548.008.656.262 1.193 2.774.41 6.048-1.862 7.785-.186.142-.406.272-.618.38-.502.257-.99.595-1.448 1.002L7.785 30.91C7.689 30.995 7.571 31.036 7.453 31.036z" class="color455a64 svgShape"></path><path fill="#644556" d="M15.348,18.515c-0.023,0-0.047-0.001-0.07-0.005c-0.273-0.038-0.464-0.291-0.426-0.564l0.532-3.826
					c0.188-1.35-0.06-2.328-0.735-2.907c-0.3-0.257-0.641-0.398-0.921-0.478l-0.981,7.054c-0.038,0.274-0.293,0.467-0.564,0.426
					c-0.273-0.038-0.464-0.291-0.426-0.564l1.055-7.581c0.039-0.274,0.297-0.464,0.564-0.426c0.289,0.04,1.171,0.163,1.924,0.809
					c0.951,0.815,1.313,2.095,1.075,3.804l-0.532,3.826C15.807,18.333,15.593,18.515,15.348,18.515z" class="color455a64 svgShape"></path></g></g></svg>