<svg width="194" height="191" viewBox="0 0 194 191" fill="none" xmlns="http://www.w3.org/2000/svg">
<path d="M126.973 74.3259C124.251 68.7048 116.409 64.1058 107.287 66.7835C102.928 68.0502 99.1254 70.7668 96.4996 74.4894C93.8737 70.7668 90.0708 68.0502 85.712 66.7835C76.5701 64.1467 68.7486 68.7048 66.0263 74.3259C62.207 82.1953 63.7916 91.0459 70.7395 100.632C76.1841 108.134 83.9649 115.738 95.2603 124.568C95.6173 124.848 96.057 125 96.5097 125C96.9624 125 97.4021 124.848 97.7591 124.568C109.034 115.758 116.835 108.216 122.28 100.632C129.207 91.0459 130.792 82.1953 126.973 74.3259Z" fill="#F4F4F4"/>
</svg>
